<svg width="58" height="12" viewBox="0 0 58 12" fill="none" xmlns="http://www.w3.org/2000/svg">
<path d="M2.98418 1.04688V11H0.933399V1.04688H2.98418ZM6.94902 5.29883V6.89844H2.42363V5.29883H6.94902ZM7.42754 1.04688V2.65332H2.42363V1.04688H7.42754ZM12.4037 9.33203V6.03711C12.4037 5.80013 12.365 5.59733 12.2875 5.42871C12.21 5.25553 12.0893 5.12109 11.9252 5.02539C11.7657 4.92969 11.5583 4.88184 11.3031 4.88184C11.0844 4.88184 10.8952 4.92057 10.7357 4.99805C10.5762 5.07096 10.4532 5.17806 10.3666 5.31934C10.28 5.45605 10.2367 5.61784 10.2367 5.80469H8.26797C8.26797 5.49023 8.34089 5.19173 8.48672 4.90918C8.63255 4.62663 8.84447 4.37826 9.12246 4.16406C9.40046 3.94531 9.73086 3.77441 10.1137 3.65137C10.501 3.52832 10.934 3.4668 11.4125 3.4668C11.9867 3.4668 12.4971 3.5625 12.9438 3.75391C13.3904 3.94531 13.7413 4.23242 13.9965 4.61523C14.2563 4.99805 14.3861 5.47656 14.3861 6.05078V9.21582C14.3861 9.62142 14.4112 9.9541 14.4613 10.2139C14.5115 10.4691 14.5844 10.6924 14.6801 10.8838V11H12.6908C12.5951 10.7995 12.5222 10.5488 12.4721 10.248C12.4265 9.94271 12.4037 9.63737 12.4037 9.33203ZM12.6635 6.49512L12.6771 7.60938H11.5766C11.3168 7.60938 11.0912 7.639 10.8998 7.69824C10.7084 7.75749 10.5512 7.8418 10.4281 7.95117C10.3051 8.05599 10.2139 8.17904 10.1547 8.32031C10.1 8.46159 10.0727 8.61654 10.0727 8.78516C10.0727 8.95378 10.1114 9.10645 10.1889 9.24316C10.2663 9.37533 10.378 9.48014 10.5238 9.55762C10.6697 9.63053 10.8406 9.66699 11.0365 9.66699C11.3327 9.66699 11.5902 9.60775 11.809 9.48926C12.0277 9.37077 12.1964 9.22493 12.3148 9.05176C12.4379 8.87858 12.5017 8.71452 12.5063 8.55957L13.0258 9.39355C12.9529 9.5804 12.8526 9.77409 12.725 9.97461C12.602 10.1751 12.4447 10.3643 12.2533 10.542C12.0619 10.7152 11.8318 10.8587 11.5629 10.9727C11.294 11.082 10.975 11.1367 10.6059 11.1367C10.1365 11.1367 9.71035 11.0433 9.32754 10.8564C8.94928 10.665 8.6485 10.403 8.4252 10.0703C8.20645 9.73307 8.09707 9.35026 8.09707 8.92188C8.09707 8.53451 8.16999 8.19043 8.31582 7.88965C8.46165 7.58887 8.67585 7.33594 8.9584 7.13086C9.24551 6.92122 9.60326 6.764 10.0316 6.65918C10.46 6.5498 10.9568 6.49512 11.5219 6.49512H12.6635ZM19.1094 9.59863C19.3509 9.59863 19.5651 9.55306 19.752 9.46191C19.9388 9.36621 20.0846 9.23405 20.1895 9.06543C20.2988 8.89225 20.3558 8.68945 20.3604 8.45703H22.2129C22.2083 8.97656 22.0693 9.43913 21.7959 9.84473C21.5225 10.2458 21.1556 10.5625 20.6953 10.7949C20.235 11.0228 19.7201 11.1367 19.1504 11.1367C18.5762 11.1367 18.0749 11.041 17.6465 10.8496C17.2227 10.6582 16.8695 10.3939 16.5869 10.0566C16.3044 9.71484 16.0924 9.31836 15.9512 8.86719C15.8099 8.41146 15.7393 7.92383 15.7393 7.4043V7.20605C15.7393 6.68197 15.8099 6.19434 15.9512 5.74316C16.0924 5.28743 16.3044 4.89095 16.5869 4.55371C16.8695 4.21191 17.2227 3.94531 17.6465 3.75391C18.0703 3.5625 18.5671 3.4668 19.1367 3.4668C19.7428 3.4668 20.2738 3.58301 20.7295 3.81543C21.1898 4.04785 21.5498 4.38053 21.8096 4.81348C22.0739 5.24186 22.2083 5.75 22.2129 6.33789H20.3604C20.3558 6.0918 20.3034 5.86849 20.2031 5.66797C20.1074 5.46745 19.9661 5.30794 19.7793 5.18945C19.597 5.06641 19.3714 5.00488 19.1025 5.00488C18.8154 5.00488 18.5807 5.06641 18.3984 5.18945C18.2161 5.30794 18.0749 5.47201 17.9746 5.68164C17.8743 5.88672 17.8037 6.12142 17.7627 6.38574C17.7262 6.64551 17.708 6.91895 17.708 7.20605V7.4043C17.708 7.69141 17.7262 7.96712 17.7627 8.23145C17.7992 8.49577 17.8675 8.73047 17.9678 8.93555C18.0726 9.14062 18.2161 9.30241 18.3984 9.4209C18.5807 9.53939 18.8177 9.59863 19.1094 9.59863ZM25.5826 3.60352V11H23.607V3.60352H25.5826ZM23.484 1.67578C23.484 1.38867 23.5842 1.15169 23.7848 0.964844C23.9853 0.777995 24.2542 0.68457 24.5914 0.68457C24.9241 0.68457 25.1907 0.777995 25.3912 0.964844C25.5963 1.15169 25.6988 1.38867 25.6988 1.67578C25.6988 1.96289 25.5963 2.19987 25.3912 2.38672C25.1907 2.57357 24.9241 2.66699 24.5914 2.66699C24.2542 2.66699 23.9853 2.57357 23.7848 2.38672C23.5842 2.19987 23.484 1.96289 23.484 1.67578ZM29.4377 0.5V11H27.4621V0.5H29.4377ZM33.2928 3.60352V11H31.3172V3.60352H33.2928ZM31.1941 1.67578C31.1941 1.38867 31.2944 1.15169 31.4949 0.964844C31.6954 0.777995 31.9643 0.68457 32.3016 0.68457C32.6342 0.68457 32.9008 0.777995 33.1014 0.964844C33.3064 1.15169 33.409 1.38867 33.409 1.67578C33.409 1.96289 33.3064 2.19987 33.1014 2.38672C32.9008 2.57357 32.6342 2.66699 32.3016 2.66699C31.9643 2.66699 31.6954 2.57357 31.4949 2.38672C31.2944 2.19987 31.1941 1.96289 31.1941 1.67578ZM38.6928 3.60352V4.99805H34.3861V3.60352H38.6928ZM35.4525 1.77832H37.4213V8.77148C37.4213 8.98568 37.4486 9.14974 37.5033 9.26367C37.5626 9.3776 37.6492 9.45736 37.7631 9.50293C37.877 9.54395 38.0206 9.56445 38.1938 9.56445C38.3168 9.56445 38.4262 9.5599 38.5219 9.55078C38.6221 9.53711 38.7064 9.52344 38.7748 9.50977L38.7816 10.959C38.613 11.0137 38.4307 11.057 38.2348 11.0889C38.0388 11.1208 37.8223 11.1367 37.5854 11.1367C37.1524 11.1367 36.7742 11.0661 36.4506 10.9248C36.1316 10.779 35.8855 10.5465 35.7123 10.2275C35.5391 9.90853 35.4525 9.48926 35.4525 8.96973V1.77832ZM42.042 3.60352V11H40.0664V3.60352H42.042ZM39.9434 1.67578C39.9434 1.38867 40.0436 1.15169 40.2441 0.964844C40.4447 0.777995 40.7135 0.68457 41.0508 0.68457C41.3835 0.68457 41.6501 0.777995 41.8506 0.964844C42.0557 1.15169 42.1582 1.38867 42.1582 1.67578C42.1582 1.96289 42.0557 2.19987 41.8506 2.38672C41.6501 2.57357 41.3835 2.66699 41.0508 2.66699C40.7135 2.66699 40.4447 2.57357 40.2441 2.38672C40.0436 2.19987 39.9434 1.96289 39.9434 1.67578ZM47.2232 11.1367C46.649 11.1367 46.1341 11.0456 45.6783 10.8633C45.2226 10.6764 44.8352 10.4189 44.5162 10.0908C44.2018 9.7627 43.9602 9.38216 43.7916 8.94922C43.623 8.51172 43.5387 8.04688 43.5387 7.55469V7.28125C43.5387 6.7207 43.6184 6.20801 43.7779 5.74316C43.9374 5.27832 44.1653 4.875 44.4615 4.5332C44.7623 4.19141 45.1269 3.92936 45.5553 3.74707C45.9837 3.56022 46.4667 3.4668 47.0045 3.4668C47.5286 3.4668 47.9934 3.55339 48.399 3.72656C48.8046 3.89974 49.1441 4.14583 49.4176 4.46484C49.6956 4.78385 49.9052 5.16667 50.0465 5.61328C50.1878 6.05534 50.2584 6.54753 50.2584 7.08984V7.91016H44.3795V6.59766H48.3238V6.44727C48.3238 6.17383 48.2737 5.93001 48.1734 5.71582C48.0777 5.49707 47.9319 5.32389 47.7359 5.19629C47.54 5.06868 47.2893 5.00488 46.984 5.00488C46.7242 5.00488 46.5009 5.06185 46.3141 5.17578C46.1272 5.28971 45.9745 5.44922 45.8561 5.6543C45.7421 5.85938 45.6555 6.10091 45.5963 6.37891C45.5416 6.65234 45.5143 6.95312 45.5143 7.28125V7.55469C45.5143 7.85091 45.5553 8.12435 45.6373 8.375C45.7239 8.62565 45.8447 8.84212 45.9996 9.02441C46.1591 9.20671 46.3505 9.34798 46.5738 9.44824C46.8017 9.5485 47.0592 9.59863 47.3463 9.59863C47.7018 9.59863 48.0322 9.53027 48.3375 9.39355C48.6474 9.25228 48.914 9.04036 49.1373 8.75781L50.0943 9.79688C49.9394 10.0202 49.7275 10.2344 49.4586 10.4395C49.1943 10.6445 48.8753 10.8132 48.5016 10.9453C48.1279 11.0729 47.7018 11.1367 47.2232 11.1367ZM55.5285 8.95605C55.5285 8.81478 55.4875 8.68717 55.4055 8.57324C55.3234 8.45931 55.1708 8.35449 54.9475 8.25879C54.7287 8.15853 54.412 8.06738 53.9973 7.98535C53.6236 7.90332 53.2749 7.80078 52.9514 7.67773C52.6324 7.55013 52.3544 7.39746 52.1174 7.21973C51.885 7.04199 51.7027 6.83236 51.5705 6.59082C51.4383 6.34473 51.3723 6.06445 51.3723 5.75C51.3723 5.4401 51.4383 5.14844 51.5705 4.875C51.7072 4.60156 51.9009 4.36003 52.1516 4.15039C52.4068 3.9362 52.7167 3.76986 53.0812 3.65137C53.4504 3.52832 53.8651 3.4668 54.3254 3.4668C54.968 3.4668 55.5194 3.56934 55.9797 3.77441C56.4445 3.97949 56.8 4.26204 57.0461 4.62207C57.2967 4.97754 57.4221 5.38314 57.4221 5.83887H55.4533C55.4533 5.64746 55.4123 5.47656 55.3303 5.32617C55.2528 5.17122 55.1298 5.05046 54.9611 4.96387C54.7971 4.87272 54.5829 4.82715 54.3186 4.82715C54.0998 4.82715 53.9107 4.86589 53.7512 4.94336C53.5917 5.01628 53.4686 5.11654 53.382 5.24414C53.3 5.36719 53.259 5.50391 53.259 5.6543C53.259 5.76823 53.2818 5.87077 53.3273 5.96191C53.3775 6.0485 53.4572 6.12826 53.5666 6.20117C53.676 6.27409 53.8173 6.34245 53.9904 6.40625C54.1682 6.46549 54.3869 6.52018 54.6467 6.57031C55.1799 6.67969 55.6561 6.82324 56.0754 7.00098C56.4947 7.17415 56.8273 7.41113 57.0734 7.71191C57.3195 8.00814 57.4426 8.39779 57.4426 8.88086C57.4426 9.20898 57.3697 9.50977 57.2238 9.7832C57.078 10.0566 56.8684 10.2959 56.5949 10.501C56.3215 10.7015 55.9934 10.8587 55.6105 10.9727C55.2323 11.082 54.8062 11.1367 54.3322 11.1367C53.6441 11.1367 53.0607 11.0137 52.5822 10.7676C52.1083 10.5215 51.7482 10.2093 51.5021 9.83105C51.2606 9.44824 51.1398 9.05632 51.1398 8.65527H53.0061C53.0152 8.92415 53.0835 9.14062 53.2111 9.30469C53.3433 9.46875 53.5096 9.58724 53.7102 9.66016C53.9152 9.73307 54.1363 9.76953 54.3732 9.76953C54.6284 9.76953 54.8404 9.73535 55.009 9.66699C55.1776 9.59408 55.3052 9.49837 55.3918 9.37988C55.4829 9.25684 55.5285 9.11556 55.5285 8.95605Z" fill="black"/>
</svg>
